<svg viewBox="0 0 16 16">
	<path d="M13.231,3.729c0,0.531-0.429,0.961-0.96,0.961c-0.53,0-0.96-0.43-0.96-0.961c0-0.529,0.43-0.959,0.96-0.959
	C12.802,2.77,13.231,3.199,13.231,3.729z M16.001,8c0,2.173-0.009,2.445-0.048,3.298c-0.039,0.853-0.174,1.434-0.372,1.942
	c-0.205,0.526-0.479,0.973-0.923,1.417c-0.445,0.445-0.891,0.719-1.417,0.923c-0.509,0.198-1.091,0.333-1.942,0.372
	C10.446,15.991,10.173,16,8,16s-2.445-0.009-3.298-0.048c-0.852-0.039-1.433-0.174-1.942-0.372
	c-0.526-0.204-0.972-0.478-1.417-0.923c-0.444-0.444-0.718-0.891-0.923-1.417c-0.198-0.509-0.333-1.09-0.372-1.942
	C0.009,10.445,0,10.173,0,8s0.009-2.445,0.048-3.298C0.087,3.85,0.222,3.269,0.42,2.76c0.205-0.526,0.479-0.973,0.923-1.417
	C1.788,0.897,2.234,0.624,2.76,0.42c0.509-0.198,1.091-0.333,1.942-0.372C5.555,0.009,5.828,0,8,0s2.445,0.009,3.299,0.048
	c0.851,0.039,1.433,0.174,1.942,0.372c0.526,0.204,0.972,0.478,1.417,0.923c0.444,0.444,0.718,0.891,0.923,1.417
	c0.198,0.509,0.333,1.09,0.372,1.942C15.992,5.555,16.001,5.827,16.001,8z M14.56,8c0-2.137-0.008-2.39-0.047-3.232
	c-0.036-0.78-0.166-1.204-0.275-1.486c-0.145-0.373-0.319-0.64-0.599-0.92c-0.28-0.279-0.546-0.453-0.919-0.598
	c-0.282-0.109-0.706-0.24-1.486-0.275C10.39,1.449,10.137,1.441,8,1.441S5.611,1.449,4.768,1.488
	c-0.78,0.035-1.204,0.166-1.486,0.275c-0.373,0.145-0.64,0.318-0.919,0.598c-0.28,0.28-0.454,0.547-0.599,0.92
	c-0.11,0.282-0.24,0.706-0.275,1.486C1.45,5.61,1.441,5.863,1.441,8s0.008,2.39,0.047,3.232c0.036,0.78,0.166,1.204,0.275,1.486
	c0.145,0.373,0.319,0.64,0.599,0.92c0.28,0.279,0.546,0.453,0.919,0.598c0.282,0.109,0.706,0.24,1.486,0.275
	C5.611,14.55,5.864,14.559,8,14.559s2.39-0.009,3.232-0.047c0.78-0.035,1.204-0.166,1.486-0.275c0.373-0.145,0.64-0.318,0.919-0.598
	c0.28-0.28,0.454-0.547,0.599-0.92c0.11-0.282,0.24-0.706,0.275-1.486C14.551,10.39,14.56,10.137,14.56,8z M12.109,8
	c0,2.27-1.839,4.108-4.108,4.108S3.892,10.27,3.892,8S5.731,3.892,8,3.892S12.109,5.73,12.109,8z M10.667,8
	c0-1.474-1.194-2.667-2.667-2.667S5.333,6.526,5.333,8S6.528,10.667,8,10.667S10.667,9.474,10.667,8z"/>
</svg>
