<svg viewBox="595 576 9.5 14">
	<path d="M600.042,576.031c-2.675,0-4.851,2.165-4.851,4.826c0,4.767,4.006,8.476,4.177,8.632l0.674,0.615l0.674-0.615
	c0.171-0.155,4.179-3.865,4.179-8.632C604.895,578.196,602.718,576.031,600.042,576.031z M600.041,587.304
	c-1.023-1.162-2.849-3.631-2.849-6.447c0-1.559,1.279-2.826,2.851-2.826c1.573,0,2.853,1.268,2.853,2.826
	C602.895,583.661,601.064,586.138,600.041,587.304z M601.054,580.857c0,0.555-0.453,1.005-1.012,1.005s-1.011-0.45-1.011-1.005
	c0-0.556,0.453-1.005,1.011-1.005S601.054,580.301,601.054,580.857z"/>
</svg>
