<svg viewBox="0 0 14 14">
	<path d="M14,7.583V6.417l-1.486-0.213c-0.137-0.943-0.508-1.81-1.055-2.539l0.902-1.203l-0.824-0.824L10.334,2.54
	c-0.73-0.547-1.596-0.918-2.539-1.054L7.583,0H6.417L6.205,1.486C5.261,1.622,4.396,1.993,3.666,2.54L2.463,1.638L1.639,2.462
	l0.901,1.203C1.994,4.395,1.623,5.261,1.487,6.204L0,6.417v1.166l1.486,0.213c0.136,0.943,0.507,1.81,1.054,2.539l-0.901,1.203
	l0.824,0.824l1.202-0.902c0.73,0.547,1.596,0.918,2.539,1.054L6.417,14h1.165l0.213-1.486c0.943-0.136,1.809-0.507,2.539-1.054
	l1.203,0.902l0.824-0.825l-0.901-1.203c0.547-0.729,0.917-1.596,1.054-2.538L14,7.583z M7,11.423c-2.438,0-4.423-1.984-4.423-4.423
	S4.562,2.577,7,2.577c2.438,0,4.422,1.984,4.422,4.423S9.438,11.423,7,11.423z M9,7c0,1.104-0.896,2-2,2C5.896,9,5,8.104,5,7
	s0.896-2,2-2C8.104,5,9,5.896,9,7z"/>
</svg>
