<svg viewBox="0 0 254 47">
<path d="M0,36.37V0h12.453c2.57,0,4.962,0.461,7.177,1.382c2.215,0.922,4.138,2.186,5.77,3.792s2.904,3.521,3.817,5.745
	s1.37,4.646,1.37,7.267c0,2.638-0.457,5.063-1.37,7.278c-0.913,2.216-2.186,4.126-3.817,5.732s-3.555,2.87-5.77,3.792
	c-2.215,0.921-4.607,1.382-7.177,1.382H0z M4.667,31.703h7.787c1.944,0,3.741-0.329,5.389-0.989
	c1.649-0.659,3.069-1.585,4.261-2.776c1.192-1.192,2.126-2.621,2.802-4.287c0.676-1.665,1.015-3.487,1.015-5.465
	c0-1.979-0.338-3.788-1.015-5.428c-0.676-1.641-1.61-3.057-2.802-4.249c-1.192-1.191-2.612-2.126-4.261-2.802
	c-1.648-0.677-3.445-1.015-5.389-1.015H4.667V31.703z M36.209,36.37V10.398h4.312v3.906c0.794-1.454,1.843-2.574,3.145-3.36
	c1.302-0.786,2.875-1.18,4.717-1.18c0.457,0,0.888,0.029,1.293,0.089c0.406,0.06,0.82,0.123,1.243,0.19v4.717
	c-0.457-0.102-0.884-0.177-1.281-0.228c-0.398-0.051-0.833-0.076-1.307-0.076c-1.454,0-2.667,0.232-3.639,0.697
	c-0.973,0.465-1.763,1.129-2.372,1.991s-1.036,1.902-1.281,3.119c-0.245,1.218-0.368,2.554-0.368,4.008V36.37H36.209z
	 M51.964,23.385c0-1.944,0.346-3.745,1.04-5.402s1.648-3.095,2.866-4.312c1.217-1.218,2.654-2.173,4.312-2.866
	c1.657-0.693,3.458-1.04,5.402-1.04c1.944,0,3.745,0.347,5.402,1.04c1.657,0.693,3.094,1.648,4.312,2.866
	c1.217,1.217,2.172,2.654,2.866,4.312s1.04,3.458,1.04,5.402s-0.347,3.745-1.04,5.402s-1.648,3.094-2.866,4.312
	c-1.217,1.217-2.655,2.173-4.312,2.865c-1.658,0.693-3.458,1.04-5.402,1.04c-1.945,0-3.746-0.347-5.402-1.04
	c-1.657-0.692-3.094-1.648-4.312-2.865c-1.218-1.218-2.173-2.654-2.866-4.312S51.964,25.329,51.964,23.385z M56.605,23.385
	c0,1.353,0.216,2.6,0.647,3.74c0.431,1.142,1.035,2.118,1.813,2.93s1.721,1.454,2.828,1.928s2.337,0.71,3.69,0.71
	c1.353,0,2.583-0.236,3.69-0.71s2.05-1.116,2.828-1.928c0.777-0.812,1.382-1.788,1.813-2.93c0.431-1.141,0.647-2.388,0.647-3.74
	s-0.216-2.6-0.647-3.741s-1.036-2.118-1.813-2.93c-0.778-0.812-1.721-1.454-2.828-1.928c-1.107-0.473-2.337-0.71-3.69-0.71
	c-1.353,0-2.583,0.237-3.69,0.71c-1.107,0.474-2.05,1.116-2.828,1.928s-1.382,1.788-1.813,2.93S56.605,22.032,56.605,23.385z
	 M83.505,46.769v-36.37h4.464v3.729c0.964-1.285,2.202-2.333,3.716-3.145c1.513-0.812,3.326-1.218,5.44-1.218
	c1.758,0,3.411,0.321,4.958,0.964s2.874,1.552,3.981,2.727s1.982,2.604,2.626,4.286c0.642,1.683,0.963,3.563,0.963,5.644
	c0,2.079-0.321,3.961-0.963,5.643c-0.644,1.683-1.519,3.111-2.626,4.286c-1.107,1.176-2.435,2.085-3.981,2.727
	c-1.547,0.643-3.2,0.964-4.958,0.964c-2.08,0-3.855-0.41-5.326-1.229c-1.472-0.82-2.748-1.89-3.83-3.209v14.203H83.505z
	 M87.665,23.385c0,2.874,0.777,5.17,2.334,6.886c1.555,1.716,3.669,2.574,6.34,2.574c1.353,0,2.566-0.236,3.64-0.71
	c1.074-0.474,1.982-1.124,2.727-1.953c0.744-0.828,1.314-1.821,1.712-2.98c0.397-1.157,0.597-2.43,0.597-3.816
	s-0.199-2.659-0.597-3.817s-0.968-2.151-1.712-2.98c-0.744-0.828-1.652-1.479-2.727-1.952c-1.073-0.474-2.287-0.711-3.64-0.711
	c-2.671,0-4.785,0.858-6.34,2.574C88.442,18.215,87.665,20.51,87.665,23.385z M112.706,27.696l4.108-2.182
	c0.49,2.013,1.34,3.547,2.549,4.604s2.836,1.585,4.883,1.585c1.877,0,3.364-0.452,4.464-1.356c1.099-0.904,1.648-2.202,1.648-3.894
	c0-0.964-0.183-1.767-0.546-2.409s-0.846-1.192-1.445-1.648c-0.601-0.457-1.285-0.82-2.055-1.091s-1.568-0.549-2.396-0.837
	c-1.184-0.389-2.414-0.833-3.69-1.332c-1.276-0.498-2.443-1.145-3.5-1.939s-1.924-1.792-2.6-2.993
	c-0.677-1.2-1.015-2.663-1.015-4.388c0-1.556,0.296-2.946,0.888-4.172c0.592-1.227,1.391-2.253,2.396-3.082
	c1.006-0.828,2.173-1.462,3.501-1.902C121.223,0.22,122.614,0,124.068,0c2.874,0,5.301,0.782,7.279,2.346
	c1.978,1.564,3.364,3.69,4.159,6.379l-4.413,1.775c-0.558-2.079-1.441-3.567-2.65-4.464c-1.209-0.896-2.701-1.344-4.477-1.344
	c-2.046,0-3.585,0.503-4.616,1.509s-1.547,2.236-1.547,3.69c0,0.896,0.182,1.645,0.545,2.244c0.363,0.601,0.862,1.129,1.497,1.586
	c0.634,0.456,1.395,0.85,2.282,1.179c0.888,0.33,1.83,0.664,2.828,1.002c1.42,0.49,2.747,1.002,3.981,1.534
	c1.234,0.533,2.3,1.188,3.196,1.966c0.896,0.778,1.605,1.721,2.13,2.828s0.786,2.465,0.786,4.07c0,1.725-0.296,3.222-0.888,4.489
	c-0.592,1.269-1.382,2.317-2.371,3.146s-2.13,1.441-3.424,1.839s-2.65,0.596-4.07,0.596c-1.116,0-2.262-0.14-3.438-0.419
	c-1.175-0.278-2.291-0.748-3.348-1.407s-2.008-1.551-2.854-2.676C113.812,30.744,113.162,29.354,112.706,27.696z M140.486,46.769
	v-36.37h4.464v3.729c0.964-1.285,2.202-2.333,3.716-3.145c1.513-0.812,3.326-1.218,5.44-1.218c1.758,0,3.411,0.321,4.958,0.964
	s2.874,1.552,3.981,2.727s1.982,2.604,2.626,4.286c0.642,1.683,0.963,3.563,0.963,5.644c0,2.079-0.321,3.961-0.963,5.643
	c-0.644,1.683-1.519,3.111-2.626,4.286c-1.107,1.176-2.435,2.085-3.981,2.727c-1.547,0.643-3.2,0.964-4.958,0.964
	c-2.08,0-3.855-0.41-5.326-1.229c-1.472-0.82-2.748-1.89-3.83-3.209v14.203H140.486z M144.645,23.385
	c0,2.874,0.777,5.17,2.334,6.886c1.555,1.716,3.669,2.574,6.34,2.574c1.353,0,2.566-0.236,3.64-0.71
	c1.074-0.474,1.982-1.124,2.727-1.953c0.744-0.828,1.314-1.821,1.712-2.98c0.397-1.157,0.597-2.43,0.597-3.816
	s-0.199-2.659-0.597-3.817s-0.968-2.151-1.712-2.98c-0.744-0.828-1.652-1.479-2.727-1.952c-1.073-0.474-2.287-0.711-3.64-0.711
	c-2.671,0-4.785,0.858-6.34,2.574C145.422,18.215,144.645,20.51,144.645,23.385z M171.072,36.37V0h4.591v36.37H171.072z
	 M180.387,28.837c0-1.23,0.207-2.317,0.62-3.258c0.414-0.94,1.001-1.753,1.761-2.438s1.642-1.228,2.646-1.629
	c1.004-0.402,2.114-0.654,3.33-0.757l7.327-0.754c1.126-0.1,1.681-0.557,1.664-1.371v-0.672c0-1.263-0.474-2.276-1.421-3.041
	c-0.946-0.764-2.393-1.146-4.337-1.146c-1.792,0-3.288,0.373-4.489,1.116c-1.2,0.744-1.936,1.928-2.206,3.551l-3.957-2.13
	c0.49-1.944,1.564-3.521,3.222-4.73c1.656-1.209,4.066-1.813,7.229-1.813c3.601,0,6.238,0.842,7.913,2.523
	c1.674,1.683,2.511,4.079,2.511,7.19V36.37h-4.464v-3.678c-0.896,1.319-2.071,2.347-3.525,3.082
	c-1.455,0.735-3.12,1.103-4.997,1.103c-1.42,0-2.676-0.207-3.766-0.621c-1.091-0.414-2.009-0.977-2.752-1.687
	c-0.744-0.71-1.315-1.556-1.712-2.536C180.586,31.053,180.387,29.987,180.387,28.837z M185.054,28.89c0,1.115,0.41,2.028,1.23,2.738
	c0.819,0.71,2.024,1.064,3.614,1.064c1.251,0,2.358-0.203,3.322-0.608c0.964-0.406,1.783-0.935,2.46-1.585
	c0.676-0.651,1.188-1.378,1.534-2.182c0.347-0.803,0.521-1.619,0.521-2.447v-1.902l-8.471,1.018
	c-1.455,0.169-2.521,0.621-3.196,1.356C185.392,27.077,185.054,27.927,185.054,28.89z M205.342,30.917l3.702-2.333
	c0.795,1.623,1.911,2.739,3.349,3.348c1.437,0.608,2.95,0.913,4.539,0.913c1.691,0,3.015-0.297,3.97-0.89s1.433-1.498,1.433-2.718
	c0-0.661-0.139-1.199-0.418-1.613c-0.278-0.415-0.667-0.759-1.165-1.029c-0.499-0.271-1.105-0.493-1.82-0.665
	s-1.499-0.361-2.354-0.567c-1.065-0.202-2.173-0.469-3.322-0.799c-1.15-0.329-2.203-0.781-3.158-1.356s-1.741-1.319-2.358-2.232
	s-0.926-2.079-0.926-3.5c0-2.282,0.854-4.138,2.562-5.566s4.092-2.144,7.152-2.144c2.604,0,4.726,0.503,6.366,1.509
	c1.64,1.007,2.941,2.381,3.905,4.122l-3.678,2.333c-0.558-1.065-1.365-1.966-2.422-2.701s-2.489-1.104-4.299-1.104
	c-1.454,0-2.672,0.289-3.652,0.867c-0.98,0.577-1.471,1.385-1.471,2.421c0,0.629,0.156,1.143,0.469,1.542
	c0.312,0.399,0.742,0.748,1.291,1.045s1.195,0.544,1.938,0.739s1.562,0.395,2.457,0.599c1.05,0.254,2.136,0.517,3.26,0.789
	c1.123,0.271,2.134,0.686,3.032,1.24c0.897,0.555,1.635,1.285,2.211,2.193c0.575,0.907,0.863,2.101,0.863,3.579
	c0,1.387-0.249,2.592-0.748,3.614c-0.499,1.023-1.2,1.864-2.104,2.523c-0.905,0.66-1.962,1.146-3.171,1.459
	s-2.523,0.469-3.943,0.469c-1.218,0-2.397-0.114-3.538-0.342c-1.142-0.229-2.216-0.592-3.222-1.091s-1.915-1.133-2.727-1.902
	S205.866,31.982,205.342,30.917z M231.137,36.37V0h4.464v13.822c1.979-2.705,4.802-4.058,8.471-4.058
	c1.657,0,3.103,0.279,4.337,0.837s2.249,1.332,3.044,2.32c0.795,0.989,1.391,2.186,1.788,3.589c0.397,1.404,0.596,2.935,0.596,4.591
	V36.37h-4.565V20.898c0-2.146-0.52-3.846-1.56-5.098c-1.04-1.251-2.549-1.877-4.527-1.877c-1.487,0-2.723,0.271-3.702,0.812
	c-0.981,0.542-1.759,1.269-2.334,2.182s-0.977,2.004-1.205,3.271c-0.228,1.269-0.342,2.63-0.342,4.084V36.37H231.137z"/>
</svg>
